<svg xmlns="http://www.w3.org/2000/svg" width="32" height="32" viewBox="0 0 32 32" fill="none">
  <rect width="32" height="32" rx="6" fill="#16a34a"/>
  <path d="M16 6C16 6 12 10 12 14C12 16 13 18 14 19L10 24H8V26H10V24L14 20C15 21 17 22 19 22C23 22 27 18 27 18C27 18 23 14 19 14C17 14 15 15 14 16L10 12V10H8V12L10 14C11 15 12 17 12 19C12 23 16 27 16 27C16 27 20 23 20 19C20 17 19 15 18 14L22 10H24V8H22L18 12C17 11 15 10 13 10C9 10 5 14 5 14C5 14 9 18 13 18C15 18 17 17 18 16L22 20V22H24V20L22 18C21 17 20 15 20 13C20 9 16 5 16 5Z" fill="white"/>
  <circle cx="16" cy="16" r="2" fill="white"/>
</svg>
